
      <svg xmlns="http://www.w3.org/2000/svg" version="1.1" width="1400" height="800" style="display: block;"><polygon stroke-linejoin="round" stroke-miterlimit="1" stroke-width="1" points="1456.7965087890625,771.8478088378906 1355.4147338867188,875.8619995117188 1620.905517578125,890.8333129882812" style="fill:#b09a88;stroke:#b09a88;"></polygon><polygon stroke-linejoin="round" stroke-miterlimit="1" stroke-width="1" points="1462.6984252929688,757.79345703125 1355.4147338867188,875.8619995117188 1456.7965087890625,771.8478088378906" style="fill:#845141;stroke:#845141;"></polygon><polygon stroke-linejoin="round" stroke-miterlimit="1" stroke-width="1" points="1602.9124755859375,646.1861419677734 1462.6984252929688,757.79345703125 1456.7965087890625,771.8478088378906" style="fill:#845141;stroke:#845141;"></polygon><polygon stroke-linejoin="round" stroke-miterlimit="1" stroke-width="1" points="1461.6505126953125,629.9561614990234 1462.6984252929688,757.79345703125 1602.9124755859375,646.1861419677734" style="fill:#a98e7c;stroke:#a98e7c;"></polygon><polygon stroke-linejoin="round" stroke-miterlimit="1" stroke-width="1" points="1607.2130737304688,513.487922668457 1461.6505126953125,629.9561614990234 1602.9124755859375,646.1861419677734" style="fill:#a48675;stroke:#a48675;"></polygon><polygon stroke-linejoin="round" stroke-miterlimit="1" stroke-width="1" points="1514.0033569335938,526.8442916870117 1461.6505126953125,629.9561614990234 1607.2130737304688,513.487922668457" style="fill:#ab9280;stroke:#ab9280;"></polygon><polygon stroke-linejoin="round" stroke-miterlimit="1" stroke-width="1" points="1457.5645751953125,394.4260468482971 1514.0033569335938,526.8442916870117 1607.2130737304688,513.487922668457" style="fill:#a68978;stroke:#a68978;"></polygon><polygon stroke-linejoin="round" stroke-miterlimit="1" stroke-width="1" points="1433.9276123046875,391.9175224304199 1514.0033569335938,526.8442916870117 1457.5645751953125,394.4260468482971" style="fill:#9a7665;stroke:#9a7665;"></polygon><polygon stroke-linejoin="round" stroke-miterlimit="1" stroke-width="1" points="1580.8475952148438,268.543701171875 1433.9276123046875,391.9175224304199 1457.5645751953125,394.4260468482971" style="fill:#997463;stroke:#997463;"></polygon><polygon stroke-linejoin="round" stroke-miterlimit="1" stroke-width="1" points="1518.9888305664062,281.02796173095703 1433.9276123046875,391.9175224304199 1580.8475952148438,268.543701171875" style="fill:#bdb19e;stroke:#bdb19e;"></polygon><polygon stroke-linejoin="round" stroke-miterlimit="1" stroke-width="1" points="1461.5182495117188,148.15487670898438 1518.9888305664062,281.02796173095703 1580.8475952148438,268.543701171875" style="fill:#b5a391;stroke:#b5a391;"></polygon><polygon stroke-linejoin="round" stroke-miterlimit="1" stroke-width="1" points="1508.6638793945312,149.0387725830078 1518.9888305664062,281.02796173095703 1461.5182495117188,148.15487670898438" style="fill:#845141;stroke:#845141;"></polygon><polygon stroke-linejoin="round" stroke-miterlimit="1" stroke-width="1" points="1619.04443359375,28.283782958984375 1508.6638793945312,149.0387725830078 1461.5182495117188,148.15487670898438" style="fill:#845141;stroke:#845141;"></polygon><polygon stroke-linejoin="round" stroke-miterlimit="1" stroke-width="1" points="1478.9397583007812,49.216522216796875 1508.6638793945312,149.0387725830078 1619.04443359375,28.283782958984375" style="fill:#b29d8c;stroke:#b29d8c;"></polygon><polygon stroke-linejoin="round" stroke-miterlimit="1" stroke-width="1" points="1500.1705322265625,-91.86285400390625 1478.9397583007812,49.216522216796875 1619.04443359375,28.283782958984375" style="fill:#b09a89;stroke:#b09a89;"></polygon><polygon stroke-linejoin="round" stroke-miterlimit="1" stroke-width="1" points="1422.091064453125,-84.86111450195312 1478.9397583007812,49.216522216796875 1500.1705322265625,-91.86285400390625" style="fill:#956e5d;stroke:#956e5d;"></polygon><polygon stroke-linejoin="round" stroke-miterlimit="1" stroke-width="1" points="1462.6984252929688,757.79345703125 1272.076904296875,888.7491149902344 1355.4147338867188,875.8619995117188" style="fill:#c8c3b0;stroke:#c8c3b0;"></polygon><polygon stroke-linejoin="round" stroke-miterlimit="1" stroke-width="1" points="1349.2597045898438,756.9447326660156 1272.076904296875,888.7491149902344 1462.6984252929688,757.79345703125" style="fill:#ccc9b6;stroke:#ccc9b6;"></polygon><polygon stroke-linejoin="round" stroke-miterlimit="1" stroke-width="1" points="1461.6505126953125,629.9561614990234 1349.2597045898438,756.9447326660156 1462.6984252929688,757.79345703125" style="fill:#c6beab;stroke:#c6beab;"></polygon><polygon stroke-linejoin="round" stroke-miterlimit="1" stroke-width="1" points="1376.8887939453125,639.788818359375 1349.2597045898438,756.9447326660156 1461.6505126953125,629.9561614990234" style="fill:#8d5f4f;stroke:#8d5f4f;"></polygon><polygon stroke-linejoin="round" stroke-miterlimit="1" stroke-width="1" points="1514.0033569335938,526.8442916870117 1376.8887939453125,639.788818359375 1461.6505126953125,629.9561614990234" style="fill:#9c7867;stroke:#9c7867;"></polygon><polygon stroke-linejoin="round" stroke-miterlimit="1" stroke-width="1" points="1311.460205078125,508.91951751708984 1376.8887939453125,639.788818359375 1514.0033569335938,526.8442916870117" style="fill:#af9988;stroke:#af9988;"></polygon><polygon stroke-linejoin="round" stroke-miterlimit="1" stroke-width="1" points="1433.9276123046875,391.9175224304199 1311.460205078125,508.91951751708984 1514.0033569335938,526.8442916870117" style="fill:#a98f7d;stroke:#a98f7d;"></polygon><polygon stroke-linejoin="round" stroke-miterlimit="1" stroke-width="1" points="1413.810791015625,409.14159965515137 1311.460205078125,508.91951751708984 1433.9276123046875,391.9175224304199" style="fill:#ffffff;stroke:#ffffff;"></polygon><polygon stroke-linejoin="round" stroke-miterlimit="1" stroke-width="1" points="1518.9888305664062,281.02796173095703 1413.810791015625,409.14159965515137 1433.9276123046875,391.9175224304199" style="fill:#ffffff;stroke:#ffffff;"></polygon><polygon stroke-linejoin="round" stroke-miterlimit="1" stroke-width="1" points="1386.1883544921875,271.396728515625 1413.810791015625,409.14159965515137 1518.9888305664062,281.02796173095703" style="fill:#a88c7b;stroke:#a88c7b;"></polygon><polygon stroke-linejoin="round" stroke-miterlimit="1" stroke-width="1" points="1508.6638793945312,149.0387725830078 1386.1883544921875,271.396728515625 1518.9888305664062,281.02796173095703" style="fill:#a68a79;stroke:#a68a79;"></polygon><polygon stroke-linejoin="round" stroke-miterlimit="1" stroke-width="1" points="1413.9951171875,161.49952697753906 1386.1883544921875,271.396728515625 1508.6638793945312,149.0387725830078" style="fill:#926958;stroke:#926958;"></polygon><polygon stroke-linejoin="round" stroke-miterlimit="1" stroke-width="1" points="1478.9397583007812,49.216522216796875 1413.9951171875,161.49952697753906 1508.6638793945312,149.0387725830078" style="fill:#926958;stroke:#926958;"></polygon><polygon stroke-linejoin="round" stroke-miterlimit="1" stroke-width="1" points="1344.4083251953125,44.649078369140625 1413.9951171875,161.49952697753906 1478.9397583007812,49.216522216796875" style="fill:#b09a88;stroke:#b09a88;"></polygon><polygon stroke-linejoin="round" stroke-miterlimit="1" stroke-width="1" points="1422.091064453125,-84.86111450195312 1344.4083251953125,44.649078369140625 1478.9397583007812,49.216522216796875" style="fill:#b9a996;stroke:#b9a996;"></polygon><polygon stroke-linejoin="round" stroke-miterlimit="1" stroke-width="1" points="1266.7073974609375,-72.24755859375 1344.4083251953125,44.649078369140625 1422.091064453125,-84.86111450195312" style="fill:#c6bfac;stroke:#c6bfac;"></polygon><polygon stroke-linejoin="round" stroke-miterlimit="1" stroke-width="1" points="1349.2597045898438,756.9447326660156 1301.4874877929688,874.3960876464844 1272.076904296875,888.7491149902344" style="fill:#845141;stroke:#845141;"></polygon><polygon stroke-linejoin="round" stroke-miterlimit="1" stroke-width="1" points="1169.0771484375,762.2585144042969 1301.4874877929688,874.3960876464844 1349.2597045898438,756.9447326660156" style="fill:#b8a795;stroke:#b8a795;"></polygon><polygon stroke-linejoin="round" stroke-miterlimit="1" stroke-width="1" points="1376.8887939453125,639.788818359375 1169.0771484375,762.2585144042969 1349.2597045898438,756.9447326660156" style="fill:#997463;stroke:#997463;"></polygon><polygon stroke-linejoin="round" stroke-miterlimit="1" stroke-width="1" points="1238.7879638671875,631.3772583007812 1169.0771484375,762.2585144042969 1376.8887939453125,639.788818359375" style="fill:#b7a795;stroke:#b7a795;"></polygon><polygon stroke-linejoin="round" stroke-miterlimit="1" stroke-width="1" points="1311.460205078125,508.91951751708984 1238.7879638671875,631.3772583007812 1376.8887939453125,639.788818359375" style="fill:#bbad9a;stroke:#bbad9a;"></polygon><polygon stroke-linejoin="round" stroke-miterlimit="1" stroke-width="1" points="1300.449462890625,511.5926284790039 1238.7879638671875,631.3772583007812 1311.460205078125,508.91951751708984" style="fill:#d7dbc7;stroke:#d7dbc7;"></polygon><polygon stroke-linejoin="round" stroke-miterlimit="1" stroke-width="1" points="1413.810791015625,409.14159965515137 1300.449462890625,511.5926284790039 1311.460205078125,508.91951751708984" style="fill:#e8f7e3;stroke:#e8f7e3;"></polygon><polygon stroke-linejoin="round" stroke-miterlimit="1" stroke-width="1" points="1281.6312866210938,388.37524032592773 1300.449462890625,511.5926284790039 1413.810791015625,409.14159965515137" style="fill:#c1b6a3;stroke:#c1b6a3;"></polygon><polygon stroke-linejoin="round" stroke-miterlimit="1" stroke-width="1" points="1386.1883544921875,271.396728515625 1281.6312866210938,388.37524032592773 1413.810791015625,409.14159965515137" style="fill:#bdb09d;stroke:#bdb09d;"></polygon><polygon stroke-linejoin="round" stroke-miterlimit="1" stroke-width="1" points="1273.793212890625,277.66151428222656 1281.6312866210938,388.37524032592773 1386.1883544921875,271.396728515625" style="fill:#c5bdaa;stroke:#c5bdaa;"></polygon><polygon stroke-linejoin="round" stroke-miterlimit="1" stroke-width="1" points="1413.9951171875,161.49952697753906 1273.793212890625,277.66151428222656 1386.1883544921875,271.396728515625" style="fill:#c1b7a4;stroke:#c1b7a4;"></polygon><polygon stroke-linejoin="round" stroke-miterlimit="1" stroke-width="1" points="1308.9962158203125,155.40493774414062 1273.793212890625,277.66151428222656 1413.9951171875,161.49952697753906" style="fill:#bdb09e;stroke:#bdb09e;"></polygon><polygon stroke-linejoin="round" stroke-miterlimit="1" stroke-width="1" points="1344.4083251953125,44.649078369140625 1308.9962158203125,155.40493774414062 1413.9951171875,161.49952697753906" style="fill:#b3a08e;stroke:#b3a08e;"></polygon><polygon stroke-linejoin="round" stroke-miterlimit="1" stroke-width="1" points="1190.3782043457031,32.0626220703125 1308.9962158203125,155.40493774414062 1344.4083251953125,44.649078369140625" style="fill:#ab9280;stroke:#ab9280;"></polygon><polygon stroke-linejoin="round" stroke-miterlimit="1" stroke-width="1" points="1266.7073974609375,-72.24755859375 1190.3782043457031,32.0626220703125 1344.4083251953125,44.649078369140625" style="fill:#ac9382;stroke:#ac9382;"></polygon><polygon stroke-linejoin="round" stroke-miterlimit="1" stroke-width="1" points="1296.9788818359375,-90.36520385742188 1190.3782043457031,32.0626220703125 1266.7073974609375,-72.24755859375" style="fill:#845141;stroke:#845141;"></polygon><polygon stroke-linejoin="round" stroke-miterlimit="1" stroke-width="1" points="1169.0771484375,762.2585144042969 1038.0758361816406,880.2668151855469 1301.4874877929688,874.3960876464844" style="fill:#b4a18f;stroke:#b4a18f;"></polygon><polygon stroke-linejoin="round" stroke-miterlimit="1" stroke-width="1" points="1080.7263793945312,748.9531860351562 1038.0758361816406,880.2668151855469 1169.0771484375,762.2585144042969" style="fill:#9e7c6b;stroke:#9e7c6b;"></polygon><polygon stroke-linejoin="round" stroke-miterlimit="1" stroke-width="1" points="1238.7879638671875,631.3772583007812 1080.7263793945312,748.9531860351562 1169.0771484375,762.2585144042969" style="fill:#ab9180;stroke:#ab9180;"></polygon><polygon stroke-linejoin="round" stroke-miterlimit="1" stroke-width="1" points="1156.7052001953125,628.4538116455078 1080.7263793945312,748.9531860351562 1238.7879638671875,631.3772583007812" style="fill:#d6d9c6;stroke:#d6d9c6;"></polygon><polygon stroke-linejoin="round" stroke-miterlimit="1" stroke-width="1" points="1300.449462890625,511.5926284790039 1156.7052001953125,628.4538116455078 1238.7879638671875,631.3772583007812" style="fill:#cdcbb8;stroke:#cdcbb8;"></polygon><polygon stroke-linejoin="round" stroke-miterlimit="1" stroke-width="1" points="1061.1799926757812,529.2421569824219 1156.7052001953125,628.4538116455078 1300.449462890625,511.5926284790039" style="fill:#c5bdaa;stroke:#c5bdaa;"></polygon><polygon stroke-linejoin="round" stroke-miterlimit="1" stroke-width="1" points="1281.6312866210938,388.37524032592773 1061.1799926757812,529.2421569824219 1300.449462890625,511.5926284790039" style="fill:#cfceba;stroke:#cfceba;"></polygon><polygon stroke-linejoin="round" stroke-miterlimit="1" stroke-width="1" points="1037.2746887207031,391.90685844421387 1061.1799926757812,529.2421569824219 1281.6312866210938,388.37524032592773" style="fill:#d6dac6;stroke:#d6dac6;"></polygon><polygon stroke-linejoin="round" stroke-miterlimit="1" stroke-width="1" points="1273.793212890625,277.66151428222656 1037.2746887207031,391.90685844421387 1281.6312866210938,388.37524032592773" style="fill:#cbc7b4;stroke:#cbc7b4;"></polygon><polygon stroke-linejoin="round" stroke-miterlimit="1" stroke-width="1" points="1093.9963989257812,274.6960906982422 1037.2746887207031,391.90685844421387 1273.793212890625,277.66151428222656" style="fill:#d1d2be;stroke:#d1d2be;"></polygon><polygon stroke-linejoin="round" stroke-miterlimit="1" stroke-width="1" points="1308.9962158203125,155.40493774414062 1093.9963989257812,274.6960906982422 1273.793212890625,277.66151428222656" style="fill:#c4bca9;stroke:#c4bca9;"></polygon><polygon stroke-linejoin="round" stroke-miterlimit="1" stroke-width="1" points="1189.1140441894531,149.00518798828125 1093.9963989257812,274.6960906982422 1308.9962158203125,155.40493774414062" style="fill:#e0ead6;stroke:#e0ead6;"></polygon><polygon stroke-linejoin="round" stroke-miterlimit="1" stroke-width="1" points="1190.3782043457031,32.0626220703125 1189.1140441894531,149.00518798828125 1308.9962158203125,155.40493774414062" style="fill:#e2eeda;stroke:#e2eeda;"></polygon><polygon stroke-linejoin="round" stroke-miterlimit="1" stroke-width="1" points="1061.6439514160156,46.002471923828125 1189.1140441894531,149.00518798828125 1190.3782043457031,32.0626220703125" style="fill:#e0ead6;stroke:#e0ead6;"></polygon><polygon stroke-linejoin="round" stroke-miterlimit="1" stroke-width="1" points="1296.9788818359375,-90.36520385742188 1061.6439514160156,46.002471923828125 1190.3782043457031,32.0626220703125" style="fill:#cac6b3;stroke:#cac6b3;"></polygon><polygon stroke-linejoin="round" stroke-miterlimit="1" stroke-width="1" points="1107.6145324707031,-91.68389892578125 1061.6439514160156,46.002471923828125 1296.9788818359375,-90.36520385742188" style="fill:#cbc7b4;stroke:#cbc7b4;"></polygon><polygon stroke-linejoin="round" stroke-miterlimit="1" stroke-width="1" points="1080.7263793945312,748.9531860351562 957.2749633789062,874.16015625 1038.0758361816406,880.2668151855469" style="fill:#8f6353;stroke:#8f6353;"></polygon><polygon stroke-linejoin="round" stroke-miterlimit="1" stroke-width="1" points="1036.1846313476562,754.9527893066406 957.2749633789062,874.16015625 1080.7263793945312,748.9531860351562" style="fill:#ffffff;stroke:#ffffff;"></polygon><polygon stroke-linejoin="round" stroke-miterlimit="1" stroke-width="1" points="1156.7052001953125,628.4538116455078 1036.1846313476562,754.9527893066406 1080.7263793945312,748.9531860351562" style="fill:#ffffff;stroke:#ffffff;"></polygon><polygon stroke-linejoin="round" stroke-miterlimit="1" stroke-width="1" points="1056.3515319824219,630.6187896728516 1036.1846313476562,754.9527893066406 1156.7052001953125,628.4538116455078" style="fill:#9d7a69;stroke:#9d7a69;"></polygon><polygon stroke-linejoin="round" stroke-miterlimit="1" stroke-width="1" points="1061.1799926757812,529.2421569824219 1056.3515319824219,630.6187896728516 1156.7052001953125,628.4538116455078" style="fill:#c8c2b0;stroke:#c8c2b0;"></polygon><polygon stroke-linejoin="round" stroke-miterlimit="1" stroke-width="1" points="931.1982727050781,508.60015869140625 1056.3515319824219,630.6187896728516 1061.1799926757812,529.2421569824219" style="fill:#dde6d2;stroke:#dde6d2;"></polygon><polygon stroke-linejoin="round" stroke-miterlimit="1" stroke-width="1" points="1037.2746887207031,391.90685844421387 931.1982727050781,508.60015869140625 1061.1799926757812,529.2421569824219" style="fill:#e1ebd8;stroke:#e1ebd8;"></polygon><polygon stroke-linejoin="round" stroke-miterlimit="1" stroke-width="1" points="992.1956787109375,394.3772859573364 931.1982727050781,508.60015869140625 1037.2746887207031,391.90685844421387" style="fill:#a98e7c;stroke:#a98e7c;"></polygon><polygon stroke-linejoin="round" stroke-miterlimit="1" stroke-width="1" points="1093.9963989257812,274.6960906982422 992.1956787109375,394.3772859573364 1037.2746887207031,391.90685844421387" style="fill:#a78b7a;stroke:#a78b7a;"></polygon><polygon stroke-linejoin="round" stroke-miterlimit="1" stroke-width="1" points="1054.4638061523438,291.0650939941406 992.1956787109375,394.3772859573364 1093.9963989257812,274.6960906982422" style="fill:#ffffff;stroke:#ffffff;"></polygon><polygon stroke-linejoin="round" stroke-miterlimit="1" stroke-width="1" points="1189.1140441894531,149.00518798828125 1054.4638061523438,291.0650939941406 1093.9963989257812,274.6960906982422" style="fill:#ffffff;stroke:#ffffff;"></polygon><polygon stroke-linejoin="round" stroke-miterlimit="1" stroke-width="1" points="931.1149291992188,148.06190490722656 1054.4638061523438,291.0650939941406 1189.1140441894531,149.00518798828125" style="fill:#e4f0dd;stroke:#e4f0dd;"></polygon><polygon stroke-linejoin="round" stroke-miterlimit="1" stroke-width="1" points="1061.6439514160156,46.002471923828125 931.1149291992188,148.06190490722656 1189.1140441894531,149.00518798828125" style="fill:#dae1cd;stroke:#dae1cd;"></polygon><polygon stroke-linejoin="round" stroke-miterlimit="1" stroke-width="1" points="1098.6964721679688,48.871826171875 931.1149291992188,148.06190490722656 1061.6439514160156,46.002471923828125" style="fill:#845141;stroke:#845141;"></polygon><polygon stroke-linejoin="round" stroke-miterlimit="1" stroke-width="1" points="1107.6145324707031,-91.68389892578125 1098.6964721679688,48.871826171875 1061.6439514160156,46.002471923828125" style="fill:#845141;stroke:#845141;"></polygon><polygon stroke-linejoin="round" stroke-miterlimit="1" stroke-width="1" points="931.1886444091797,-75.3968505859375 1098.6964721679688,48.871826171875 1107.6145324707031,-91.68389892578125" style="fill:#e0ead6;stroke:#e0ead6;"></polygon><polygon stroke-linejoin="round" stroke-miterlimit="1" stroke-width="1" points="1036.1846313476562,754.9527893066406 971.2520446777344,875.8191833496094 957.2749633789062,874.16015625" style="fill:#cdcab7;stroke:#cdcab7;"></polygon><polygon stroke-linejoin="round" stroke-miterlimit="1" stroke-width="1" points="843.4532165527344,750.6907958984375 971.2520446777344,875.8191833496094 1036.1846313476562,754.9527893066406" style="fill:#b29d8c;stroke:#b29d8c;"></polygon><polygon stroke-linejoin="round" stroke-miterlimit="1" stroke-width="1" points="1056.3515319824219,630.6187896728516 843.4532165527344,750.6907958984375 1036.1846313476562,754.9527893066406" style="fill:#a58877;stroke:#a58877;"></polygon><polygon stroke-linejoin="round" stroke-miterlimit="1" stroke-width="1" points="938.0572204589844,651.9587249755859 843.4532165527344,750.6907958984375 1056.3515319824219,630.6187896728516" style="fill:#d8ddca;stroke:#d8ddca;"></polygon><polygon stroke-linejoin="round" stroke-miterlimit="1" stroke-width="1" points="931.1982727050781,508.60015869140625 938.0572204589844,651.9587249755859 1056.3515319824219,630.6187896728516" style="fill:#d6d9c6;stroke:#d6d9c6;"></polygon><polygon stroke-linejoin="round" stroke-miterlimit="1" stroke-width="1" points="992.6642456054688,509.29492950439453 938.0572204589844,651.9587249755859 931.1982727050781,508.60015869140625" style="fill:#845141;stroke:#845141;"></polygon><polygon stroke-linejoin="round" stroke-miterlimit="1" stroke-width="1" points="992.1956787109375,394.3772859573364 992.6642456054688,509.29492950439453 931.1982727050781,508.60015869140625" style="fill:#845141;stroke:#845141;"></polygon><polygon stroke-linejoin="round" stroke-miterlimit="1" stroke-width="1" points="965.2427062988281,400.16530306637287 992.6642456054688,509.29492950439453 992.1956787109375,394.3772859573364" style="fill:#ffffff;stroke:#ffffff;"></polygon><polygon stroke-linejoin="round" stroke-miterlimit="1" stroke-width="1" points="1054.4638061523438,291.0650939941406 965.2427062988281,400.16530306637287 992.1956787109375,394.3772859573364" style="fill:#ffffff;stroke:#ffffff;"></polygon><polygon stroke-linejoin="round" stroke-miterlimit="1" stroke-width="1" points="977.3201293945312,291.8728485107422 965.2427062988281,400.16530306637287 1054.4638061523438,291.0650939941406" style="fill:#feffff;stroke:#feffff;"></polygon><polygon stroke-linejoin="round" stroke-miterlimit="1" stroke-width="1" points="931.1149291992188,148.06190490722656 977.3201293945312,291.8728485107422 1054.4638061523438,291.0650939941406" style="fill:#ffffff;stroke:#ffffff;"></polygon><polygon stroke-linejoin="round" stroke-miterlimit="1" stroke-width="1" points="905.3887786865234,158.90054321289062 977.3201293945312,291.8728485107422 931.1149291992188,148.06190490722656" style="fill:#ffffff;stroke:#ffffff;"></polygon><polygon stroke-linejoin="round" stroke-miterlimit="1" stroke-width="1" points="1098.6964721679688,48.871826171875 905.3887786865234,158.90054321289062 931.1149291992188,148.06190490722656" style="fill:#f4fff8;stroke:#f4fff8;"></polygon><polygon stroke-linejoin="round" stroke-miterlimit="1" stroke-width="1" points="892.2504272460938,31.495452880859375 905.3887786865234,158.90054321289062 1098.6964721679688,48.871826171875" style="fill:#f6fffb;stroke:#f6fffb;"></polygon><polygon stroke-linejoin="round" stroke-miterlimit="1" stroke-width="1" points="931.1886444091797,-75.3968505859375 892.2504272460938,31.495452880859375 1098.6964721679688,48.871826171875" style="fill:#dce4d1;stroke:#dce4d1;"></polygon><polygon stroke-linejoin="round" stroke-miterlimit="1" stroke-width="1" points="992.4931030273438,-91.88885498046875 892.2504272460938,31.495452880859375 931.1886444091797,-75.3968505859375" style="fill:#845141;stroke:#845141;"></polygon><polygon stroke-linejoin="round" stroke-miterlimit="1" stroke-width="1" points="843.4532165527344,750.6907958984375 722.8021926879883,886.0443115234375 971.2520446777344,875.8191833496094" style="fill:#aa917f;stroke:#aa917f;"></polygon><polygon stroke-linejoin="round" stroke-miterlimit="1" stroke-width="1" points="834.8210296630859,764.9172973632812 722.8021926879883,886.0443115234375 843.4532165527344,750.6907958984375" style="fill:#ffffff;stroke:#ffffff;"></polygon><polygon stroke-linejoin="round" stroke-miterlimit="1" stroke-width="1" points="938.0572204589844,651.9587249755859 834.8210296630859,764.9172973632812 843.4532165527344,750.6907958984375" style="fill:#ffffff;stroke:#ffffff;"></polygon><polygon stroke-linejoin="round" stroke-miterlimit="1" stroke-width="1" points="781.34033203125,651.7870941162109 834.8210296630859,764.9172973632812 938.0572204589844,651.9587249755859" style="fill:#c4bca9;stroke:#c4bca9;"></polygon><polygon stroke-linejoin="round" stroke-miterlimit="1" stroke-width="1" points="992.6642456054688,509.29492950439453 781.34033203125,651.7870941162109 938.0572204589844,651.9587249755859" style="fill:#e2eeda;stroke:#e2eeda;"></polygon><polygon stroke-linejoin="round" stroke-miterlimit="1" stroke-width="1" points="753.7528076171875,531.6743469238281 781.34033203125,651.7870941162109 992.6642456054688,509.29492950439453" style="fill:#d4d7c3;stroke:#d4d7c3;"></polygon><polygon stroke-linejoin="round" stroke-miterlimit="1" stroke-width="1" points="965.2427062988281,400.16530306637287 753.7528076171875,531.6743469238281 992.6642456054688,509.29492950439453" style="fill:#f4fff8;stroke:#f4fff8;"></polygon><polygon stroke-linejoin="round" stroke-miterlimit="1" stroke-width="1" points="796.1387634277344,411.34541034698486 753.7528076171875,531.6743469238281 965.2427062988281,400.16530306637287" style="fill:#f9ffff;stroke:#f9ffff;"></polygon><polygon stroke-linejoin="round" stroke-miterlimit="1" stroke-width="1" points="977.3201293945312,291.8728485107422 796.1387634277344,411.34541034698486 965.2427062988281,400.16530306637287" style="fill:#ffffff;stroke:#ffffff;"></polygon><polygon stroke-linejoin="round" stroke-miterlimit="1" stroke-width="1" points="888.8651733398438,291.98766326904297 796.1387634277344,411.34541034698486 977.3201293945312,291.8728485107422" style="fill:#ffffff;stroke:#ffffff;"></polygon><polygon stroke-linejoin="round" stroke-miterlimit="1" stroke-width="1" points="905.3887786865234,158.90054321289062 888.8651733398438,291.98766326904297 977.3201293945312,291.8728485107422" style="fill:#ffffff;stroke:#ffffff;"></polygon><polygon stroke-linejoin="round" stroke-miterlimit="1" stroke-width="1" points="766.1180419921875,167.6838836669922 888.8651733398438,291.98766326904297 905.3887786865234,158.90054321289062" style="fill:#ffffff;stroke:#ffffff;"></polygon><polygon stroke-linejoin="round" stroke-miterlimit="1" stroke-width="1" points="892.2504272460938,31.495452880859375 766.1180419921875,167.6838836669922 905.3887786865234,158.90054321289062" style="fill:#ffffff;stroke:#ffffff;"></polygon><polygon stroke-linejoin="round" stroke-miterlimit="1" stroke-width="1" points="760.2062644958496,51.725830078125 766.1180419921875,167.6838836669922 892.2504272460938,31.495452880859375" style="fill:#ffffff;stroke:#ffffff;"></polygon><polygon stroke-linejoin="round" stroke-miterlimit="1" stroke-width="1" points="992.4931030273438,-91.88885498046875 760.2062644958496,51.725830078125 892.2504272460938,31.495452880859375" style="fill:#f4fff8;stroke:#f4fff8;"></polygon><polygon stroke-linejoin="round" stroke-miterlimit="1" stroke-width="1" points="818.3276977539062,-82.36404418945312 760.2062644958496,51.725830078125 992.4931030273438,-91.88885498046875" style="fill:#e5f2de;stroke:#e5f2de;"></polygon><polygon stroke-linejoin="round" stroke-miterlimit="1" stroke-width="1" points="834.8210296630859,764.9172973632812 616.8677291870117,870.7872314453125 722.8021926879883,886.0443115234375" style="fill:#c1b7a5;stroke:#c1b7a5;"></polygon><polygon stroke-linejoin="round" stroke-miterlimit="1" stroke-width="1" points="620.7420959472656,761.9659729003906 616.8677291870117,870.7872314453125 834.8210296630859,764.9172973632812" style="fill:#b6a492;stroke:#b6a492;"></polygon><polygon stroke-linejoin="round" stroke-miterlimit="1" stroke-width="1" points="781.34033203125,651.7870941162109 620.7420959472656,761.9659729003906 834.8210296630859,764.9172973632812" style="fill:#c5beab;stroke:#c5beab;"></polygon><polygon stroke-linejoin="round" stroke-miterlimit="1" stroke-width="1" points="756.8174858093262,630.5083770751953 620.7420959472656,761.9659729003906 781.34033203125,651.7870941162109" style="fill:#bbad9b;stroke:#bbad9b;"></polygon><polygon stroke-linejoin="round" stroke-miterlimit="1" stroke-width="1" points="753.7528076171875,531.6743469238281 756.8174858093262,630.5083770751953 781.34033203125,651.7870941162109" style="fill:#d1d2bf;stroke:#d1d2bf;"></polygon><polygon stroke-linejoin="round" stroke-miterlimit="1" stroke-width="1" points="619.3510055541992,526.5696640014648 756.8174858093262,630.5083770751953 753.7528076171875,531.6743469238281" style="fill:#d8ddc9;stroke:#d8ddc9;"></polygon><polygon stroke-linejoin="round" stroke-miterlimit="1" stroke-width="1" points="796.1387634277344,411.34541034698486 619.3510055541992,526.5696640014648 753.7528076171875,531.6743469238281" style="fill:#f1fff2;stroke:#f1fff2;"></polygon><polygon stroke-linejoin="round" stroke-miterlimit="1" stroke-width="1" points="783.8487243652344,411.84070205688477 619.3510055541992,526.5696640014648 796.1387634277344,411.34541034698486" style="fill:#ffffff;stroke:#ffffff;"></polygon><polygon stroke-linejoin="round" stroke-miterlimit="1" stroke-width="1" points="888.8651733398438,291.98766326904297 783.8487243652344,411.84070205688477 796.1387634277344,411.34541034698486" style="fill:#ffffff;stroke:#ffffff;"></polygon><polygon stroke-linejoin="round" stroke-miterlimit="1" stroke-width="1" points="699.0508886575699,282.8449478149414 783.8487243652344,411.84070205688477 888.8651733398438,291.98766326904297" style="fill:#ffffff;stroke:#ffffff;"></polygon><polygon stroke-linejoin="round" stroke-miterlimit="1" stroke-width="1" points="766.1180419921875,167.6838836669922 699.0508886575699,282.8449478149414 888.8651733398438,291.98766326904297" style="fill:#ffffff;stroke:#ffffff;"></polygon><polygon stroke-linejoin="round" stroke-miterlimit="1" stroke-width="1" points="782.0977401733398,158.79537963867188 699.0508886575699,282.8449478149414 766.1180419921875,167.6838836669922" style="fill:#845141;stroke:#845141;"></polygon><polygon stroke-linejoin="round" stroke-miterlimit="1" stroke-width="1" points="760.2062644958496,51.725830078125 782.0977401733398,158.79537963867188 766.1180419921875,167.6838836669922" style="fill:#845141;stroke:#845141;"></polygon><polygon stroke-linejoin="round" stroke-miterlimit="1" stroke-width="1" points="773.7181091308594,31.2183837890625 782.0977401733398,158.79537963867188 760.2062644958496,51.725830078125" style="fill:#845141;stroke:#845141;"></polygon><polygon stroke-linejoin="round" stroke-miterlimit="1" stroke-width="1" points="818.3276977539062,-82.36404418945312 773.7181091308594,31.2183837890625 760.2062644958496,51.725830078125" style="fill:#946b5a;stroke:#946b5a;"></polygon><polygon stroke-linejoin="round" stroke-miterlimit="1" stroke-width="1" points="620.6730651855469,-69.02911376953125 773.7181091308594,31.2183837890625 818.3276977539062,-82.36404418945312" style="fill:#e2edda;stroke:#e2edda;"></polygon><polygon stroke-linejoin="round" stroke-miterlimit="1" stroke-width="1" points="620.7420959472656,761.9659729003906 678.7287979125977,889.356201171875 616.8677291870117,870.7872314453125" style="fill:#845141;stroke:#845141;"></polygon><polygon stroke-linejoin="round" stroke-miterlimit="1" stroke-width="1" points="565.3578338623047,762.8231811523438 678.7287979125977,889.356201171875 620.7420959472656,761.9659729003906" style="fill:#c1b7a5;stroke:#c1b7a5;"></polygon><polygon stroke-linejoin="round" stroke-miterlimit="1" stroke-width="1" points="756.8174858093262,630.5083770751953 565.3578338623047,762.8231811523438 620.7420959472656,761.9659729003906" style="fill:#bdb09e;stroke:#bdb09e;"></polygon><polygon stroke-linejoin="round" stroke-miterlimit="1" stroke-width="1" points="637.4865341186523,628.0006561279297 565.3578338623047,762.8231811523438 756.8174858093262,630.5083770751953" style="fill:#baac99;stroke:#baac99;"></polygon><polygon stroke-linejoin="round" stroke-miterlimit="1" stroke-width="1" points="619.3510055541992,526.5696640014648 637.4865341186523,628.0006561279297 756.8174858093262,630.5083770751953" style="fill:#e6f4e0;stroke:#e6f4e0;"></polygon><polygon stroke-linejoin="round" stroke-miterlimit="1" stroke-width="1" points="678.6508712768555,531.4476776123047 637.4865341186523,628.0006561279297 619.3510055541992,526.5696640014648" style="fill:#845141;stroke:#845141;"></polygon><polygon stroke-linejoin="round" stroke-miterlimit="1" stroke-width="1" points="783.8487243652344,411.84070205688477 678.6508712768555,531.4476776123047 619.3510055541992,526.5696640014648" style="fill:#845141;stroke:#845141;"></polygon><polygon stroke-linejoin="round" stroke-miterlimit="1" stroke-width="1" points="512.3185424804688,407.9427399635315 678.6508712768555,531.4476776123047 783.8487243652344,411.84070205688477" style="fill:#ffffff;stroke:#ffffff;"></polygon><polygon stroke-linejoin="round" stroke-miterlimit="1" stroke-width="1" points="699.0508886575699,282.8449478149414 512.3185424804688,407.9427399635315 783.8487243652344,411.84070205688477" style="fill:#ffffff;stroke:#ffffff;"></polygon><polygon stroke-linejoin="round" stroke-miterlimit="1" stroke-width="1" points="671.6739349365234,286.0561752319336 512.3185424804688,407.9427399635315 699.0508886575699,282.8449478149414" style="fill:#ffffff;stroke:#ffffff;"></polygon><polygon stroke-linejoin="round" stroke-miterlimit="1" stroke-width="1" points="782.0977401733398,158.79537963867188 671.6739349365234,286.0561752319336 699.0508886575699,282.8449478149414" style="fill:#ffffff;stroke:#ffffff;"></polygon><polygon stroke-linejoin="round" stroke-miterlimit="1" stroke-width="1" points="511.144287109375,169.19317626953125 671.6739349365234,286.0561752319336 782.0977401733398,158.79537963867188" style="fill:#ffffff;stroke:#ffffff;"></polygon><polygon stroke-linejoin="round" stroke-miterlimit="1" stroke-width="1" points="773.7181091308594,31.2183837890625 511.144287109375,169.19317626953125 782.0977401733398,158.79537963867188" style="fill:#ffffff;stroke:#ffffff;"></polygon><polygon stroke-linejoin="round" stroke-miterlimit="1" stroke-width="1" points="671.3103256225586,29.6357421875 511.144287109375,169.19317626953125 773.7181091308594,31.2183837890625" style="fill:#ffffff;stroke:#ffffff;"></polygon><polygon stroke-linejoin="round" stroke-miterlimit="1" stroke-width="1" points="620.6730651855469,-69.02911376953125 671.3103256225586,29.6357421875 773.7181091308594,31.2183837890625" style="fill:#f8fffe;stroke:#f8fffe;"></polygon><polygon stroke-linejoin="round" stroke-miterlimit="1" stroke-width="1" points="512.8834838867188,-86.24716186523438 671.3103256225586,29.6357421875 620.6730651855469,-69.02911376953125" style="fill:#e1ecd8;stroke:#e1ecd8;"></polygon><polygon stroke-linejoin="round" stroke-miterlimit="1" stroke-width="1" points="565.3578338623047,762.8231811523438 560.237060546875,877.1367797851562 678.7287979125977,889.356201171875" style="fill:#a98f7e;stroke:#a98f7e;"></polygon><polygon stroke-linejoin="round" stroke-miterlimit="1" stroke-width="1" points="571.6190338134766,750.8053588867188 560.237060546875,877.1367797851562 565.3578338623047,762.8231811523438" style="fill:#9a7665;stroke:#9a7665;"></polygon><polygon stroke-linejoin="round" stroke-miterlimit="1" stroke-width="1" points="637.4865341186523,628.0006561279297 571.6190338134766,750.8053588867188 565.3578338623047,762.8231811523438" style="fill:#845141;stroke:#845141;"></polygon><polygon stroke-linejoin="round" stroke-miterlimit="1" stroke-width="1" points="421.644287109375,629.7160339355469 571.6190338134766,750.8053588867188 637.4865341186523,628.0006561279297" style="fill:#c4bcaa;stroke:#c4bcaa;"></polygon><polygon stroke-linejoin="round" stroke-miterlimit="1" stroke-width="1" points="678.6508712768555,531.4476776123047 421.644287109375,629.7160339355469 637.4865341186523,628.0006561279297" style="fill:#d4d6c3;stroke:#d4d6c3;"></polygon><polygon stroke-linejoin="round" stroke-miterlimit="1" stroke-width="1" points="482.02166748046875,514.2211380004883 421.644287109375,629.7160339355469 678.6508712768555,531.4476776123047" style="fill:#cdcab7;stroke:#cdcab7;"></polygon><polygon stroke-linejoin="round" stroke-miterlimit="1" stroke-width="1" points="512.3185424804688,407.9427399635315 482.02166748046875,514.2211380004883 678.6508712768555,531.4476776123047" style="fill:#e0ead6;stroke:#e0ead6;"></polygon><polygon stroke-linejoin="round" stroke-miterlimit="1" stroke-width="1" points="406.03466796875,407.5163383483887 482.02166748046875,514.2211380004883 512.3185424804688,407.9427399635315" style="fill:#cbc8b5;stroke:#cbc8b5;"></polygon><polygon stroke-linejoin="round" stroke-miterlimit="1" stroke-width="1" points="671.6739349365234,286.0561752319336 406.03466796875,407.5163383483887 512.3185424804688,407.9427399635315" style="fill:#f0fff1;stroke:#f0fff1;"></polygon><polygon stroke-linejoin="round" stroke-miterlimit="1" stroke-width="1" points="549.9917907714844,270.7320556640625 406.03466796875,407.5163383483887 671.6739349365234,286.0561752319336" style="fill:#fcffff;stroke:#fcffff;"></polygon><polygon stroke-linejoin="round" stroke-miterlimit="1" stroke-width="1" points="511.144287109375,169.19317626953125 549.9917907714844,270.7320556640625 671.6739349365234,286.0561752319336" style="fill:#ffffff;stroke:#ffffff;"></polygon><polygon stroke-linejoin="round" stroke-miterlimit="1" stroke-width="1" points="453.3981628417969,150.0464324951172 549.9917907714844,270.7320556640625 511.144287109375,169.19317626953125" style="fill:#ffffff;stroke:#ffffff;"></polygon><polygon stroke-linejoin="round" stroke-miterlimit="1" stroke-width="1" points="671.3103256225586,29.6357421875 453.3981628417969,150.0464324951172 511.144287109375,169.19317626953125" style="fill:#ffffff;stroke:#ffffff;"></polygon><polygon stroke-linejoin="round" stroke-miterlimit="1" stroke-width="1" points="420.9141540527344,47.6414794921875 453.3981628417969,150.0464324951172 671.3103256225586,29.6357421875" style="fill:#e2eeda;stroke:#e2eeda;"></polygon><polygon stroke-linejoin="round" stroke-miterlimit="1" stroke-width="1" points="512.8834838867188,-86.24716186523438 420.9141540527344,47.6414794921875 671.3103256225586,29.6357421875" style="fill:#e7f6e2;stroke:#e7f6e2;"></polygon><polygon stroke-linejoin="round" stroke-miterlimit="1" stroke-width="1" points="483.4043273925781,-91.6160888671875 420.9141540527344,47.6414794921875 512.8834838867188,-86.24716186523438" style="fill:#f9ffff;stroke:#f9ffff;"></polygon><polygon stroke-linejoin="round" stroke-miterlimit="1" stroke-width="1" points="571.6190338134766,750.8053588867188 436.1302795410156,880.6985168457031 560.237060546875,877.1367797851562" style="fill:#a28271;stroke:#a28271;"></polygon><polygon stroke-linejoin="round" stroke-miterlimit="1" stroke-width="1" points="329.74078369140625,769.3361511230469 436.1302795410156,880.6985168457031 571.6190338134766,750.8053588867188" style="fill:#a98e7d;stroke:#a98e7d;"></polygon><polygon stroke-linejoin="round" stroke-miterlimit="1" stroke-width="1" points="421.644287109375,629.7160339355469 329.74078369140625,769.3361511230469 571.6190338134766,750.8053588867188" style="fill:#baac99;stroke:#baac99;"></polygon><polygon stroke-linejoin="round" stroke-miterlimit="1" stroke-width="1" points="418.0348205566406,651.9567718505859 329.74078369140625,769.3361511230469 421.644287109375,629.7160339355469" style="fill:#845141;stroke:#845141;"></polygon><polygon stroke-linejoin="round" stroke-miterlimit="1" stroke-width="1" points="482.02166748046875,514.2211380004883 418.0348205566406,651.9567718505859 421.644287109375,629.7160339355469" style="fill:#845141;stroke:#845141;"></polygon><polygon stroke-linejoin="round" stroke-miterlimit="1" stroke-width="1" points="445.24610900878906,531.9344635009766 418.0348205566406,651.9567718505859 482.02166748046875,514.2211380004883" style="fill:#c7c0ae;stroke:#c7c0ae;"></polygon><polygon stroke-linejoin="round" stroke-miterlimit="1" stroke-width="1" points="406.03466796875,407.5163383483887 445.24610900878906,531.9344635009766 482.02166748046875,514.2211380004883" style="fill:#dde5d1;stroke:#dde5d1;"></polygon><polygon stroke-linejoin="round" stroke-miterlimit="1" stroke-width="1" points="356.6954650878906,391.7379388809204 445.24610900878906,531.9344635009766 406.03466796875,407.5163383483887" style="fill:#ffffff;stroke:#ffffff;"></polygon><polygon stroke-linejoin="round" stroke-miterlimit="1" stroke-width="1" points="549.9917907714844,270.7320556640625 356.6954650878906,391.7379388809204 406.03466796875,407.5163383483887" style="fill:#efffee;stroke:#efffee;"></polygon><polygon stroke-linejoin="round" stroke-miterlimit="1" stroke-width="1" points="439.14947509765625,282.77525329589844 356.6954650878906,391.7379388809204 549.9917907714844,270.7320556640625" style="fill:#e8f8e4;stroke:#e8f8e4;"></polygon><polygon stroke-linejoin="round" stroke-miterlimit="1" stroke-width="1" points="453.3981628417969,150.0464324951172 439.14947509765625,282.77525329589844 549.9917907714844,270.7320556640625" style="fill:#f3fff6;stroke:#f3fff6;"></polygon><polygon stroke-linejoin="round" stroke-miterlimit="1" stroke-width="1" points="464.2301330566406,148.40481567382812 439.14947509765625,282.77525329589844 453.3981628417969,150.0464324951172" style="fill:#845141;stroke:#845141;"></polygon><polygon stroke-linejoin="round" stroke-miterlimit="1" stroke-width="1" points="420.9141540527344,47.6414794921875 464.2301330566406,148.40481567382812 453.3981628417969,150.0464324951172" style="fill:#845141;stroke:#845141;"></polygon><polygon stroke-linejoin="round" stroke-miterlimit="1" stroke-width="1" points="399.67730712890625,28.204620361328125 464.2301330566406,148.40481567382812 420.9141540527344,47.6414794921875" style="fill:#fbffff;stroke:#fbffff;"></polygon><polygon stroke-linejoin="round" stroke-miterlimit="1" stroke-width="1" points="483.4043273925781,-91.6160888671875 399.67730712890625,28.204620361328125 420.9141540527344,47.6414794921875" style="fill:#e0ead7;stroke:#e0ead7;"></polygon><polygon stroke-linejoin="round" stroke-miterlimit="1" stroke-width="1" points="454.8828125,-74.28973388671875 399.67730712890625,28.204620361328125 483.4043273925781,-91.6160888671875" style="fill:#ab9281;stroke:#ab9281;"></polygon><polygon stroke-linejoin="round" stroke-miterlimit="1" stroke-width="1" points="329.74078369140625,769.3361511230469 209.21539306640625,885.542236328125 436.1302795410156,880.6985168457031" style="fill:#a58977;stroke:#a58977;"></polygon><polygon stroke-linejoin="round" stroke-miterlimit="1" stroke-width="1" points="314.9364318847656,757.51416015625 209.21539306640625,885.542236328125 329.74078369140625,769.3361511230469" style="fill:#ae9685;stroke:#ae9685;"></polygon><polygon stroke-linejoin="round" stroke-miterlimit="1" stroke-width="1" points="418.0348205566406,651.9567718505859 314.9364318847656,757.51416015625 329.74078369140625,769.3361511230469" style="fill:#b7a795;stroke:#b7a795;"></polygon><polygon stroke-linejoin="round" stroke-miterlimit="1" stroke-width="1" points="314.70050048828125,628.0299224853516 314.9364318847656,757.51416015625 418.0348205566406,651.9567718505859" style="fill:#b5a290;stroke:#b5a290;"></polygon><polygon stroke-linejoin="round" stroke-miterlimit="1" stroke-width="1" points="445.24610900878906,531.9344635009766 314.70050048828125,628.0299224853516 418.0348205566406,651.9567718505859" style="fill:#b9a997;stroke:#b9a997;"></polygon><polygon stroke-linejoin="round" stroke-miterlimit="1" stroke-width="1" points="302.19415283203125,520.7761077880859 314.70050048828125,628.0299224853516 445.24610900878906,531.9344635009766" style="fill:#bdb09d;stroke:#bdb09d;"></polygon><polygon stroke-linejoin="round" stroke-miterlimit="1" stroke-width="1" points="356.6954650878906,391.7379388809204 302.19415283203125,520.7761077880859 445.24610900878906,531.9344635009766" style="fill:#b29d8b;stroke:#b29d8b;"></polygon><polygon stroke-linejoin="round" stroke-miterlimit="1" stroke-width="1" points="247.49481201171875,410.77813625335693 302.19415283203125,520.7761077880859 356.6954650878906,391.7379388809204" style="fill:#ac9382;stroke:#ac9382;"></polygon><polygon stroke-linejoin="round" stroke-miterlimit="1" stroke-width="1" points="439.14947509765625,282.77525329589844 247.49481201171875,410.77813625335693 356.6954650878906,391.7379388809204" style="fill:#bfb3a1;stroke:#bfb3a1;"></polygon><polygon stroke-linejoin="round" stroke-miterlimit="1" stroke-width="1" points="222.41311645507812,274.8905792236328 247.49481201171875,410.77813625335693 439.14947509765625,282.77525329589844" style="fill:#ceccb9;stroke:#ceccb9;"></polygon><polygon stroke-linejoin="round" stroke-miterlimit="1" stroke-width="1" points="464.2301330566406,148.40481567382812 222.41311645507812,274.8905792236328 439.14947509765625,282.77525329589844" style="fill:#dbe1ce;stroke:#dbe1ce;"></polygon><polygon stroke-linejoin="round" stroke-miterlimit="1" stroke-width="1" points="363.2341003417969,162.38909912109375 222.41311645507812,274.8905792236328 464.2301330566406,148.40481567382812" style="fill:#d8ddc9;stroke:#d8ddc9;"></polygon><polygon stroke-linejoin="round" stroke-miterlimit="1" stroke-width="1" points="399.67730712890625,28.204620361328125 363.2341003417969,162.38909912109375 464.2301330566406,148.40481567382812" style="fill:#d5d9c5;stroke:#d5d9c5;"></polygon><polygon stroke-linejoin="round" stroke-miterlimit="1" stroke-width="1" points="218.99676513671875,49.0198974609375 363.2341003417969,162.38909912109375 399.67730712890625,28.204620361328125" style="fill:#cdcab7;stroke:#cdcab7;"></polygon><polygon stroke-linejoin="round" stroke-miterlimit="1" stroke-width="1" points="454.8828125,-74.28973388671875 218.99676513671875,49.0198974609375 399.67730712890625,28.204620361328125" style="fill:#dbe2ce;stroke:#dbe2ce;"></polygon><polygon stroke-linejoin="round" stroke-miterlimit="1" stroke-width="1" points="301.6470031738281,-72.89468383789062 218.99676513671875,49.0198974609375 454.8828125,-74.28973388671875" style="fill:#b4a08e;stroke:#b4a08e;"></polygon><polygon stroke-linejoin="round" stroke-miterlimit="1" stroke-width="1" points="314.9364318847656,757.51416015625 123.230224609375,884.0054626464844 209.21539306640625,885.542236328125" style="fill:#ab9180;stroke:#ab9180;"></polygon><polygon stroke-linejoin="round" stroke-miterlimit="1" stroke-width="1" points="232.95767211914062,758.0365295410156 123.230224609375,884.0054626464844 314.9364318847656,757.51416015625" style="fill:#b9aa98;stroke:#b9aa98;"></polygon><polygon stroke-linejoin="round" stroke-miterlimit="1" stroke-width="1" points="314.70050048828125,628.0299224853516 232.95767211914062,758.0365295410156 314.9364318847656,757.51416015625" style="fill:#a58877;stroke:#a58877;"></polygon><polygon stroke-linejoin="round" stroke-miterlimit="1" stroke-width="1" points="92.3524169921875,632.7605438232422 232.95767211914062,758.0365295410156 314.70050048828125,628.0299224853516" style="fill:#a58877;stroke:#a58877;"></polygon><polygon stroke-linejoin="round" stroke-miterlimit="1" stroke-width="1" points="302.19415283203125,520.7761077880859 92.3524169921875,632.7605438232422 314.70050048828125,628.0299224853516" style="fill:#b9a997;stroke:#b9a997;"></polygon><polygon stroke-linejoin="round" stroke-miterlimit="1" stroke-width="1" points="125.44805908203125,510.1117858886719 92.3524169921875,632.7605438232422 302.19415283203125,520.7761077880859" style="fill:#b39f8d;stroke:#b39f8d;"></polygon><polygon stroke-linejoin="round" stroke-miterlimit="1" stroke-width="1" points="247.49481201171875,410.77813625335693 125.44805908203125,510.1117858886719 302.19415283203125,520.7761077880859" style="fill:#ccc9b7;stroke:#ccc9b7;"></polygon><polygon stroke-linejoin="round" stroke-miterlimit="1" stroke-width="1" points="105.89764404296875,411.1013536453247 125.44805908203125,510.1117858886719 247.49481201171875,410.77813625335693" style="fill:#c1b7a5;stroke:#c1b7a5;"></polygon><polygon stroke-linejoin="round" stroke-miterlimit="1" stroke-width="1" points="222.41311645507812,274.8905792236328 105.89764404296875,411.1013536453247 247.49481201171875,410.77813625335693" style="fill:#bdaf9d;stroke:#bdaf9d;"></polygon><polygon stroke-linejoin="round" stroke-miterlimit="1" stroke-width="1" points="255.27264404296875,281.94612884521484 105.89764404296875,411.1013536453247 222.41311645507812,274.8905792236328" style="fill:#845141;stroke:#845141;"></polygon><polygon stroke-linejoin="round" stroke-miterlimit="1" stroke-width="1" points="363.2341003417969,162.38909912109375 255.27264404296875,281.94612884521484 222.41311645507812,274.8905792236328" style="fill:#845141;stroke:#845141;"></polygon><polygon stroke-linejoin="round" stroke-miterlimit="1" stroke-width="1" points="190.95782470703125,170.99569702148438 255.27264404296875,281.94612884521484 363.2341003417969,162.38909912109375" style="fill:#c2b9a6;stroke:#c2b9a6;"></polygon><polygon stroke-linejoin="round" stroke-miterlimit="1" stroke-width="1" points="218.99676513671875,49.0198974609375 190.95782470703125,170.99569702148438 363.2341003417969,162.38909912109375" style="fill:#bfb4a1;stroke:#bfb4a1;"></polygon><polygon stroke-linejoin="round" stroke-miterlimit="1" stroke-width="1" points="230.50848388671875,50.735595703125 190.95782470703125,170.99569702148438 218.99676513671875,49.0198974609375" style="fill:#845141;stroke:#845141;"></polygon><polygon stroke-linejoin="round" stroke-miterlimit="1" stroke-width="1" points="301.6470031738281,-72.89468383789062 230.50848388671875,50.735595703125 218.99676513671875,49.0198974609375" style="fill:#845141;stroke:#845141;"></polygon><polygon stroke-linejoin="round" stroke-miterlimit="1" stroke-width="1" points="94.91351318359375,-72.07855224609375 230.50848388671875,50.735595703125 301.6470031738281,-72.89468383789062" style="fill:#c9c4b1;stroke:#c9c4b1;"></polygon><polygon stroke-linejoin="round" stroke-miterlimit="1" stroke-width="1" points="232.95767211914062,758.0365295410156 76.84051513671875,872.0042419433594 123.230224609375,884.0054626464844" style="fill:#b6a593;stroke:#b6a593;"></polygon><polygon stroke-linejoin="round" stroke-miterlimit="1" stroke-width="1" points="68.5030517578125,748.6747436523438 76.84051513671875,872.0042419433594 232.95767211914062,758.0365295410156" style="fill:#baaa98;stroke:#baaa98;"></polygon><polygon stroke-linejoin="round" stroke-miterlimit="1" stroke-width="1" points="92.3524169921875,632.7605438232422 68.5030517578125,748.6747436523438 232.95767211914062,758.0365295410156" style="fill:#b6a492;stroke:#b6a492;"></polygon><polygon stroke-linejoin="round" stroke-miterlimit="1" stroke-width="1" points="90.42523193359375,629.901611328125 68.5030517578125,748.6747436523438 92.3524169921875,632.7605438232422" style="fill:#ffffff;stroke:#ffffff;"></polygon><polygon stroke-linejoin="round" stroke-miterlimit="1" stroke-width="1" points="125.44805908203125,510.1117858886719 90.42523193359375,629.901611328125 92.3524169921875,632.7605438232422" style="fill:#ffffff;stroke:#ffffff;"></polygon><polygon stroke-linejoin="round" stroke-miterlimit="1" stroke-width="1" points="153.74462890625,527.6596603393555 90.42523193359375,629.901611328125 125.44805908203125,510.1117858886719" style="fill:#845141;stroke:#845141;"></polygon><polygon stroke-linejoin="round" stroke-miterlimit="1" stroke-width="1" points="105.89764404296875,411.1013536453247 153.74462890625,527.6596603393555 125.44805908203125,510.1117858886719" style="fill:#845141;stroke:#845141;"></polygon><polygon stroke-linejoin="round" stroke-miterlimit="1" stroke-width="1" points="52.905029296875,409.68028259277344 153.74462890625,527.6596603393555 105.89764404296875,411.1013536453247" style="fill:#dae1cd;stroke:#dae1cd;"></polygon><polygon stroke-linejoin="round" stroke-miterlimit="1" stroke-width="1" points="255.27264404296875,281.94612884521484 52.905029296875,409.68028259277344 105.89764404296875,411.1013536453247" style="fill:#c8c3b0;stroke:#c8c3b0;"></polygon><polygon stroke-linejoin="round" stroke-miterlimit="1" stroke-width="1" points="147.03558349609375,270.04554748535156 52.905029296875,409.68028259277344 255.27264404296875,281.94612884521484" style="fill:#b7a694;stroke:#b7a694;"></polygon><polygon stroke-linejoin="round" stroke-miterlimit="1" stroke-width="1" points="190.95782470703125,170.99569702148438 147.03558349609375,270.04554748535156 255.27264404296875,281.94612884521484" style="fill:#beb19f;stroke:#beb19f;"></polygon><polygon stroke-linejoin="round" stroke-miterlimit="1" stroke-width="1" points="-5.7169189453125,166.9406280517578 147.03558349609375,270.04554748535156 190.95782470703125,170.99569702148438" style="fill:#b19c8a;stroke:#b19c8a;"></polygon><polygon stroke-linejoin="round" stroke-miterlimit="1" stroke-width="1" points="230.50848388671875,50.735595703125 -5.7169189453125,166.9406280517578 190.95782470703125,170.99569702148438" style="fill:#b19d8b;stroke:#b19d8b;"></polygon><polygon stroke-linejoin="round" stroke-miterlimit="1" stroke-width="1" points="25.30999755859375,28.06512451171875 -5.7169189453125,166.9406280517578 230.50848388671875,50.735595703125" style="fill:#bbad9b;stroke:#bbad9b;"></polygon><polygon stroke-linejoin="round" stroke-miterlimit="1" stroke-width="1" points="94.91351318359375,-72.07855224609375 25.30999755859375,28.06512451171875 230.50848388671875,50.735595703125" style="fill:#bfb3a1;stroke:#bfb3a1;"></polygon><polygon stroke-linejoin="round" stroke-miterlimit="1" stroke-width="1" points="-12.09393310546875,-84.63223266601562 25.30999755859375,28.06512451171875 94.91351318359375,-72.07855224609375" style="fill:#ae9785;stroke:#ae9785;"></polygon><polygon stroke-linejoin="round" stroke-miterlimit="1" stroke-width="1" points="68.5030517578125,748.6747436523438 -48.94195556640625,885.0296020507812 76.84051513671875,872.0042419433594" style="fill:#9f7e6d;stroke:#9f7e6d;"></polygon><polygon stroke-linejoin="round" stroke-miterlimit="1" stroke-width="1" points="-46.44366455078125,754.2169494628906 -48.94195556640625,885.0296020507812 68.5030517578125,748.6747436523438" style="fill:#a58776;stroke:#a58776;"></polygon><polygon stroke-linejoin="round" stroke-miterlimit="1" stroke-width="1" points="90.42523193359375,629.901611328125 -46.44366455078125,754.2169494628906 68.5030517578125,748.6747436523438" style="fill:#a07f6e;stroke:#a07f6e;"></polygon><polygon stroke-linejoin="round" stroke-miterlimit="1" stroke-width="1" points="32.77862548828125,638.751953125 -46.44366455078125,754.2169494628906 90.42523193359375,629.901611328125" style="fill:#926857;stroke:#926857;"></polygon><polygon stroke-linejoin="round" stroke-miterlimit="1" stroke-width="1" points="153.74462890625,527.6596603393555 32.77862548828125,638.751953125 90.42523193359375,629.901611328125" style="fill:#9b7766;stroke:#9b7766;"></polygon><polygon stroke-linejoin="round" stroke-miterlimit="1" stroke-width="1" points="-118.81634521484375,509.34964752197266 32.77862548828125,638.751953125 153.74462890625,527.6596603393555" style="fill:#ae9785;stroke:#ae9785;"></polygon><polygon stroke-linejoin="round" stroke-miterlimit="1" stroke-width="1" points="52.905029296875,409.68028259277344 -118.81634521484375,509.34964752197266 153.74462890625,527.6596603393555" style="fill:#aa907f;stroke:#aa907f;"></polygon><polygon stroke-linejoin="round" stroke-miterlimit="1" stroke-width="1" points="-112.78125,391.6601276397705 -118.81634521484375,509.34964752197266 52.905029296875,409.68028259277344" style="fill:#a88c7b;stroke:#a88c7b;"></polygon><polygon stroke-linejoin="round" stroke-miterlimit="1" stroke-width="1" points="147.03558349609375,270.04554748535156 -112.78125,391.6601276397705 52.905029296875,409.68028259277344" style="fill:#b09a89;stroke:#b09a89;"></polygon><polygon stroke-linejoin="round" stroke-miterlimit="1" stroke-width="1" points="-116.92791748046875,268.5287170410156 -112.78125,391.6601276397705 147.03558349609375,270.04554748535156" style="fill:#a78c7b;stroke:#a78c7b;"></polygon><polygon stroke-linejoin="round" stroke-miterlimit="1" stroke-width="1" points="-5.7169189453125,166.9406280517578 -116.92791748046875,268.5287170410156 147.03558349609375,270.04554748535156" style="fill:#a98e7d;stroke:#a98e7d;"></polygon><polygon stroke-linejoin="round" stroke-miterlimit="1" stroke-width="1" points="-47.4686279296875,149.289306640625 -116.92791748046875,268.5287170410156 -5.7169189453125,166.9406280517578" style="fill:#b3a08e;stroke:#b3a08e;"></polygon><polygon stroke-linejoin="round" stroke-miterlimit="1" stroke-width="1" points="25.30999755859375,28.06512451171875 -47.4686279296875,149.289306640625 -5.7169189453125,166.9406280517578" style="fill:#bbac9a;stroke:#bbac9a;"></polygon><polygon stroke-linejoin="round" stroke-miterlimit="1" stroke-width="1" points="-1.4776611328125,38.347198486328125 -47.4686279296875,149.289306640625 25.30999755859375,28.06512451171875" style="fill:#845141;stroke:#845141;"></polygon><polygon stroke-linejoin="round" stroke-miterlimit="1" stroke-width="1" points="-12.09393310546875,-84.63223266601562 -1.4776611328125,38.347198486328125 25.30999755859375,28.06512451171875" style="fill:#8d6050;stroke:#8d6050;"></polygon><polygon stroke-linejoin="round" stroke-miterlimit="1" stroke-width="1" points="-96.4139404296875,-91.95892333984375 -1.4776611328125,38.347198486328125 -12.09393310546875,-84.63223266601562" style="fill:#997363;stroke:#997363;"></polygon><polygon stroke-linejoin="round" stroke-miterlimit="1" stroke-width="1" points="-46.44366455078125,754.2169494628906 -70.16412353515625,878.3796997070312 -48.94195556640625,885.0296020507812" style="fill:#af9886;stroke:#af9886;"></polygon><polygon stroke-linejoin="round" stroke-miterlimit="1" stroke-width="1" points="-148.152587890625,759.9079284667969 -70.16412353515625,878.3796997070312 -46.44366455078125,754.2169494628906" style="fill:#b4a18f;stroke:#b4a18f;"></polygon><polygon stroke-linejoin="round" stroke-miterlimit="1" stroke-width="1" points="32.77862548828125,638.751953125 -148.152587890625,759.9079284667969 -46.44366455078125,754.2169494628906" style="fill:#b5a391;stroke:#b5a391;"></polygon><polygon stroke-linejoin="round" stroke-miterlimit="1" stroke-width="1" points="-78.6815185546875,651.0916137695312 -148.152587890625,759.9079284667969 32.77862548828125,638.751953125" style="fill:#b29e8c;stroke:#b29e8c;"></polygon><polygon stroke-linejoin="round" stroke-miterlimit="1" stroke-width="1" points="-118.81634521484375,509.34964752197266 -78.6815185546875,651.0916137695312 32.77862548828125,638.751953125" style="fill:#a78c7a;stroke:#a78c7a;"></polygon><polygon stroke-linejoin="round" stroke-miterlimit="1" stroke-width="1" points="-117.7061767578125,516.8263702392578 -78.6815185546875,651.0916137695312 -118.81634521484375,509.34964752197266" style="fill:#ffffff;stroke:#ffffff;"></polygon><polygon stroke-linejoin="round" stroke-miterlimit="1" stroke-width="1" points="-112.78125,391.6601276397705 -117.7061767578125,516.8263702392578 -118.81634521484375,509.34964752197266" style="fill:#ffffff;stroke:#ffffff;"></polygon><polygon stroke-linejoin="round" stroke-miterlimit="1" stroke-width="1" points="-58.0394287109375,411.9999752044678 -117.7061767578125,516.8263702392578 -112.78125,391.6601276397705" style="fill:#845141;stroke:#845141;"></polygon><polygon stroke-linejoin="round" stroke-miterlimit="1" stroke-width="1" points="-116.92791748046875,268.5287170410156 -58.0394287109375,411.9999752044678 -112.78125,391.6601276397705" style="fill:#845141;stroke:#845141;"></polygon><polygon stroke-linejoin="round" stroke-miterlimit="1" stroke-width="1" points="-56.7266845703125,289.2128677368164 -58.0394287109375,411.9999752044678 -116.92791748046875,268.5287170410156" style="fill:#845141;stroke:#845141;"></polygon><polygon stroke-linejoin="round" stroke-miterlimit="1" stroke-width="1" points="-47.4686279296875,149.289306640625 -56.7266845703125,289.2128677368164 -116.92791748046875,268.5287170410156" style="fill:#845141;stroke:#845141;"></polygon><polygon stroke-linejoin="round" stroke-miterlimit="1" stroke-width="1" points="-165.2701416015625,161.89881896972656 -56.7266845703125,289.2128677368164 -47.4686279296875,149.289306640625" style="fill:#9d7a69;stroke:#9d7a69;"></polygon><polygon stroke-linejoin="round" stroke-miterlimit="1" stroke-width="1" points="-1.4776611328125,38.347198486328125 -165.2701416015625,161.89881896972656 -47.4686279296875,149.289306640625" style="fill:#987261;stroke:#987261;"></polygon><polygon stroke-linejoin="round" stroke-miterlimit="1" stroke-width="1" points="-127.95147705078125,28.994140625 -165.2701416015625,161.89881896972656 -1.4776611328125,38.347198486328125" style="fill:#b09a88;stroke:#b09a88;"></polygon><polygon stroke-linejoin="round" stroke-miterlimit="1" stroke-width="1" points="-96.4139404296875,-91.95892333984375 -127.95147705078125,28.994140625 -1.4776611328125,38.347198486328125" style="fill:#b09a88;stroke:#b09a88;"></polygon><polygon stroke-linejoin="round" stroke-miterlimit="1" stroke-width="1" points="-158.26507568359375,-77.40380859375 -127.95147705078125,28.994140625 -96.4139404296875,-91.95892333984375" style="fill:#a78b79;stroke:#a78b79;"></polygon></svg>